<svg width="24" height="24" viewBox="0 0 24 24" fill="none" xmlns="http://www.w3.org/2000/svg">
    <path fill-rule="evenodd" clip-rule="evenodd" d="M12 21C16.563 21 20.063 18 22.5 12C20.063 6 16.563 3 12 3C7.437 3 3.937 6 1.5 12C3.937 18 7.437 21 12 21ZM12 16.5C10.8076 16.4966 9.66498 16.0214 8.82181 15.1782C7.97864 14.335 7.50343 13.1924 7.5 12C7.5 9.525 9.525 7.5 12 7.5C14.475 7.5 16.5 9.525 16.5 12C16.5 14.475 14.475 16.5 12 16.5Z" stroke="#C0CCDA" stroke-width="2" stroke-linecap="round" stroke-linejoin="round"/>
</svg>
